<svg viewBox="0 0 500 500" xmlns="http://www.w3.org/2000/svg" xmlns:xlink="http://www.w3.org/1999/xlink" width="100%" id="blobSvg">
  <path id="blob" d="M462.5,282Q447,314,410,326.5Q373,339,383,393Q393,447,356,454.5Q319,462,284.5,464Q250,466,222.5,443Q195,420,170.5,406.5Q146,393,121.5,377Q97,361,68.5,339.5Q40,318,52,284Q64,250,68.5,221Q73,192,65,151Q57,110,81.5,81Q106,52,141,37.5Q176,23,213,46Q250,69,288,43Q326,17,350,48Q374,79,388.5,109Q403,139,413.5,166Q424,193,451,221.5Q478,250,462.5,282Z" fill="#d1d8e0"></path>
</svg>